<?xml version="1.0" encoding="UTF-8" standalone="no"?>
<!DOCTYPE svg PUBLIC "-//W3C//DTD SVG 1.1//EN"
 "http://www.w3.org/Graphics/SVG/1.1/DTD/svg11.dtd">
<!-- Generated by graphviz version 2.44.0 (20200408.0750)
 -->
<!-- Title: dependency&#45;cruiser output Pages: 1 -->
<svg width="600pt" height="292pt"
 viewBox="0.00 0.00 600.00 292.00" xmlns="http://www.w3.org/2000/svg" xmlns:xlink="http://www.w3.org/1999/xlink">
<g id="graph0" class="graph" transform="scale(1 1) rotate(0) translate(4 288)">
<title>dependency&#45;cruiser output</title>
<polygon fill="white" stroke="transparent" points="-4,4 -4,-288 596,-288 596,4 -4,4"/>
<g id="clust1" class="cluster">
<title>cluster_src</title>
<path fill="#ffffff" stroke="black" stroke-width="2" d="M20,-56C20,-56 572,-56 572,-56 578,-56 584,-62 584,-68 584,-68 584,-264 584,-264 584,-270 578,-276 572,-276 572,-276 20,-276 20,-276 14,-276 8,-270 8,-264 8,-264 8,-68 8,-68 8,-62 14,-56 20,-56"/>
<text text-anchor="middle" x="296" y="-264.8" font-family="Helvetica,sans-Serif" font-weight="bold" font-size="9.00">src</text>
</g>
<g id="clust2" class="cluster">
<title>cluster_src/api</title>
<path fill="#ffffff" stroke="black" stroke-width="2" d="M168,-74C168,-74 214,-74 214,-74 220,-74 226,-80 226,-86 226,-86 226,-114 226,-114 226,-120 220,-126 214,-126 214,-126 168,-126 168,-126 162,-126 156,-120 156,-114 156,-114 156,-86 156,-86 156,-80 162,-74 168,-74"/>
<text text-anchor="middle" x="191" y="-114.8" font-family="Helvetica,sans-Serif" font-weight="bold" font-size="9.00">api</text>
</g>
<g id="clust3" class="cluster">
<title>cluster_src/constants</title>
<path fill="#ffffff" stroke="black" stroke-width="2" d="M246,-92C246,-92 292,-92 292,-92 298,-92 304,-98 304,-104 304,-104 304,-132 304,-132 304,-138 298,-144 292,-144 292,-144 246,-144 246,-144 240,-144 234,-138 234,-132 234,-132 234,-104 234,-104 234,-98 240,-92 246,-92"/>
<text text-anchor="middle" x="269" y="-132.8" font-family="Helvetica,sans-Serif" font-weight="bold" font-size="9.00">constants</text>
</g>
<g id="clust4" class="cluster">
<title>cluster_src/routes</title>
<path fill="#ffffff" stroke="black" stroke-width="2" d="M90,-81C90,-81 136,-81 136,-81 142,-81 148,-87 148,-93 148,-93 148,-121 148,-121 148,-127 142,-133 136,-133 136,-133 90,-133 90,-133 84,-133 78,-127 78,-121 78,-121 78,-93 78,-93 78,-87 84,-81 90,-81"/>
<text text-anchor="middle" x="113" y="-121.8" font-family="Helvetica,sans-Serif" font-weight="bold" font-size="9.00">routes</text>
</g>
<g id="clust5" class="cluster">
<title>cluster_src/store</title>
<path fill="#ffffff" stroke="black" stroke-width="2" d="M168,-158C168,-158 296.5,-158 296.5,-158 302.5,-158 308.5,-164 308.5,-170 308.5,-170 308.5,-228 308.5,-228 308.5,-234 302.5,-240 296.5,-240 296.5,-240 168,-240 168,-240 162,-240 156,-234 156,-228 156,-228 156,-170 156,-170 156,-164 162,-158 168,-158"/>
<text text-anchor="middle" x="232.25" y="-228.8" font-family="Helvetica,sans-Serif" font-weight="bold" font-size="9.00">store</text>
</g>
<g id="clust6" class="cluster">
<title>cluster_src/utils</title>
<path fill="#ffffff" stroke="black" stroke-width="2" d="M328.5,-78C328.5,-78 564,-78 564,-78 570,-78 576,-84 576,-90 576,-90 576,-192 576,-192 576,-198 570,-204 564,-204 564,-204 328.5,-204 328.5,-204 322.5,-204 316.5,-198 316.5,-192 316.5,-192 316.5,-90 316.5,-90 316.5,-84 322.5,-78 328.5,-78"/>
<text text-anchor="middle" x="446.25" y="-192.8" font-family="Helvetica,sans-Serif" font-weight="bold" font-size="9.00">utils</text>
</g>
<!-- fs -->
<g id="node1" class="node">
<title>fs</title>
<path fill="#ffffcc" stroke="grey" d="M558.5,-18C558.5,-18 516.5,-18 516.5,-18 513.5,-18 510.5,-15 510.5,-12 510.5,-12 510.5,-6 510.5,-6 510.5,-3 513.5,0 516.5,0 516.5,0 558.5,0 558.5,0 561.5,0 564.5,-3 564.5,-6 564.5,-6 564.5,-12 564.5,-12 564.5,-15 561.5,-18 558.5,-18"/>
<text text-anchor="middle" x="537.5" y="-6.8" font-family="Helvetica,sans-Serif" font-size="9.00" fill="grey">fs</text>
</g>
<!-- path -->
<g id="node2" class="node">
<title>path</title>
<path fill="#ffffcc" stroke="grey" d="M134,-48C134,-48 92,-48 92,-48 89,-48 86,-45 86,-42 86,-42 86,-36 86,-36 86,-33 89,-30 92,-30 92,-30 134,-30 134,-30 137,-30 140,-33 140,-36 140,-36 140,-42 140,-42 140,-45 137,-48 134,-48"/>
<text text-anchor="middle" x="113" y="-36.8" font-family="Helvetica,sans-Serif" font-size="9.00" fill="grey">path</text>
</g>
<!-- src/api/index.js -->
<g id="node3" class="node">
<title>src/api/index.js</title>
<g id="a_node3"><a xlink:href="src/api/index.js" xlink:title="index.js">
<path fill="#ffffcc" stroke="black" d="M212,-100C212,-100 170,-100 170,-100 167,-100 164,-97 164,-94 164,-94 164,-88 164,-88 164,-85 167,-82 170,-82 170,-82 212,-82 212,-82 215,-82 218,-85 218,-88 218,-88 218,-94 218,-94 218,-97 215,-100 212,-100"/>
<text text-anchor="middle" x="191" y="-88.8" font-family="Helvetica,sans-Serif" font-size="9.00">index.js</text>
</a>
</g>
</g>
<!-- src/constants/index.js -->
<g id="node4" class="node">
<title>src/constants/index.js</title>
<g id="a_node4"><a xlink:href="src/constants/index.js" xlink:title="index.js">
<path fill="#ffffcc" stroke="black" d="M290,-118C290,-118 248,-118 248,-118 245,-118 242,-115 242,-112 242,-112 242,-106 242,-106 242,-103 245,-100 248,-100 248,-100 290,-100 290,-100 293,-100 296,-103 296,-106 296,-106 296,-112 296,-112 296,-115 293,-118 290,-118"/>
<text text-anchor="middle" x="269" y="-106.8" font-family="Helvetica,sans-Serif" font-size="9.00">index.js</text>
</a>
</g>
</g>
<!-- src/api/index.js&#45;&gt;src/constants/index.js -->
<g id="edge1" class="edge">
<title>src/api/index.js&#45;&gt;src/constants/index.js</title>
<path fill="none" stroke="#000000" stroke-width="2" stroke-opacity="0.200000" d="M218.15,-97.19C223.89,-98.55 230.02,-100 235.95,-101.41"/>
<polygon fill="#000000" fill-opacity="0.200000" stroke="#000000" stroke-width="2" stroke-opacity="0.200000" points="235.47,-103.45 241.8,-102.79 236.44,-99.37 235.47,-103.45"/>
</g>
<!-- src/utils/index.js -->
<g id="node5" class="node">
<title>src/utils/index.js</title>
<g id="a_node5"><a xlink:href="src/utils/index.js" xlink:title="index.js">
<path fill="#ffffcc" stroke="black" d="M372.5,-155C372.5,-155 330.5,-155 330.5,-155 327.5,-155 324.5,-152 324.5,-149 324.5,-149 324.5,-143 324.5,-143 324.5,-140 327.5,-137 330.5,-137 330.5,-137 372.5,-137 372.5,-137 375.5,-137 378.5,-140 378.5,-143 378.5,-143 378.5,-149 378.5,-149 378.5,-152 375.5,-155 372.5,-155"/>
<text text-anchor="middle" x="351.5" y="-143.8" font-family="Helvetica,sans-Serif" font-size="9.00">index.js</text>
</a>
</g>
</g>
<!-- src/api/index.js&#45;&gt;src/utils/index.js -->
<g id="edge2" class="edge">
<title>src/api/index.js&#45;&gt;src/utils/index.js</title>
<path fill="none" stroke="#000000" stroke-width="2" stroke-opacity="0.200000" d="M218.08,-83.91C242.76,-78.67 280.15,-74.68 308.5,-89 325.97,-97.83 337.96,-117.73 344.52,-131.51"/>
<polygon fill="#000000" fill-opacity="0.200000" stroke="#000000" stroke-width="2" stroke-opacity="0.200000" points="342.62,-132.39 347.01,-136.99 346.44,-130.66 342.62,-132.39"/>
</g>
<!-- src/utils/common.js -->
<g id="node11" class="node">
<title>src/utils/common.js</title>
<g id="a_node11"><a xlink:href="src/utils/common.js" xlink:title="common.js">
<path fill="#ffffcc" stroke="black" d="M562,-126C562,-126 513,-126 513,-126 510,-126 507,-123 507,-120 507,-120 507,-114 507,-114 507,-111 510,-108 513,-108 513,-108 562,-108 562,-108 565,-108 568,-111 568,-114 568,-114 568,-120 568,-120 568,-123 565,-126 562,-126"/>
<text text-anchor="middle" x="537.5" y="-114.8" font-family="Helvetica,sans-Serif" font-size="9.00">common.js</text>
</a>
</g>
</g>
<!-- src/utils/index.js&#45;&gt;src/utils/common.js -->
<g id="edge19" class="edge">
<title>src/utils/index.js&#45;&gt;src/utils/common.js</title>
<path fill="none" stroke="#000000" stroke-width="2" stroke-opacity="0.200000" d="M365.18,-136.84C372.49,-132.09 382.09,-126.72 391.5,-124 427.67,-113.56 471,-112.92 500.82,-114.2"/>
<polygon fill="#000000" fill-opacity="0.200000" stroke="#000000" stroke-width="2" stroke-opacity="0.200000" points="500.87,-116.3 506.97,-114.5 501.08,-112.11 500.87,-116.3"/>
</g>
<!-- src/utils/lighthouse.js -->
<g id="node12" class="node">
<title>src/utils/lighthouse.js</title>
<g id="a_node12"><a xlink:href="src/utils/lighthouse.js" xlink:title="lighthouse.js">
<path fill="#ffffcc" stroke="black" d="M466,-104C466,-104 410,-104 410,-104 407,-104 404,-101 404,-98 404,-98 404,-92 404,-92 404,-89 407,-86 410,-86 410,-86 466,-86 466,-86 469,-86 472,-89 472,-92 472,-92 472,-98 472,-98 472,-101 469,-104 466,-104"/>
<text text-anchor="middle" x="438" y="-92.8" font-family="Helvetica,sans-Serif" font-size="9.00">lighthouse.js</text>
</a>
</g>
</g>
<!-- src/utils/index.js&#45;&gt;src/utils/lighthouse.js -->
<g id="edge20" class="edge">
<title>src/utils/index.js&#45;&gt;src/utils/lighthouse.js</title>
<path fill="none" stroke="#000000" stroke-width="2" stroke-opacity="0.200000" d="M361.45,-136.94C368.96,-129.72 380.24,-119.74 391.5,-113 395.5,-110.61 399.87,-108.41 404.27,-106.44"/>
<polygon fill="#000000" fill-opacity="0.200000" stroke="#000000" stroke-width="2" stroke-opacity="0.200000" points="405.15,-108.35 409.84,-104.07 403.5,-104.49 405.15,-108.35"/>
</g>
<!-- src/utils/responseBuilder.js -->
<g id="node13" class="node">
<title>src/utils/responseBuilder.js</title>
<g id="a_node13"><a xlink:href="src/utils/responseBuilder.js" xlink:title="responseBuilder.js">
<path fill="#ffffcc" stroke="black" d="M478.5,-148C478.5,-148 397.5,-148 397.5,-148 394.5,-148 391.5,-145 391.5,-142 391.5,-142 391.5,-136 391.5,-136 391.5,-133 394.5,-130 397.5,-130 397.5,-130 478.5,-130 478.5,-130 481.5,-130 484.5,-133 484.5,-136 484.5,-136 484.5,-142 484.5,-142 484.5,-145 481.5,-148 478.5,-148"/>
<text text-anchor="middle" x="438" y="-136.8" font-family="Helvetica,sans-Serif" font-size="9.00">responseBuilder.js</text>
</a>
</g>
</g>
<!-- src/utils/index.js&#45;&gt;src/utils/responseBuilder.js -->
<g id="edge21" class="edge">
<title>src/utils/index.js&#45;&gt;src/utils/responseBuilder.js</title>
<path fill="none" stroke="#000000" stroke-width="2" stroke-opacity="0.200000" d="M378.77,-143.82C380.94,-143.64 383.16,-143.46 385.43,-143.27"/>
<polygon fill="#000000" fill-opacity="0.200000" stroke="#000000" stroke-width="2" stroke-opacity="0.200000" points="385.69,-145.36 391.49,-142.77 385.34,-141.17 385.69,-145.36"/>
</g>
<!-- src/utils/schedule.js -->
<g id="node14" class="node">
<title>src/utils/schedule.js</title>
<g id="a_node14"><a xlink:href="src/utils/schedule.js" xlink:title="schedule.js">
<path fill="#ffffcc" stroke="black" d="M463.5,-178C463.5,-178 412.5,-178 412.5,-178 409.5,-178 406.5,-175 406.5,-172 406.5,-172 406.5,-166 406.5,-166 406.5,-163 409.5,-160 412.5,-160 412.5,-160 463.5,-160 463.5,-160 466.5,-160 469.5,-163 469.5,-166 469.5,-166 469.5,-172 469.5,-172 469.5,-175 466.5,-178 463.5,-178"/>
<text text-anchor="middle" x="438" y="-166.8" font-family="Helvetica,sans-Serif" font-size="9.00">schedule.js</text>
</a>
</g>
</g>
<!-- src/utils/index.js&#45;&gt;src/utils/schedule.js -->
<g id="edge22" class="edge">
<title>src/utils/index.js&#45;&gt;src/utils/schedule.js</title>
<path fill="none" stroke="#000000" stroke-width="2" stroke-opacity="0.200000" d="M378.77,-153.15C385.59,-155.01 393.05,-157.04 400.29,-159.01"/>
<polygon fill="#000000" fill-opacity="0.200000" stroke="#000000" stroke-width="2" stroke-opacity="0.200000" points="399.96,-161.1 406.3,-160.64 401.07,-157.04 399.96,-161.1"/>
</g>
<!-- src/index.js -->
<g id="node6" class="node">
<title>src/index.js</title>
<g id="a_node6"><a xlink:href="src/index.js" xlink:title="index.js">
<path fill="#ffffcc" stroke="black" d="M64,-158C64,-158 22,-158 22,-158 19,-158 16,-155 16,-152 16,-152 16,-146 16,-146 16,-143 19,-140 22,-140 22,-140 64,-140 64,-140 67,-140 70,-143 70,-146 70,-146 70,-152 70,-152 70,-155 67,-158 64,-158"/>
<text text-anchor="middle" x="43" y="-146.8" font-family="Helvetica,sans-Serif" font-size="9.00">index.js</text>
</a>
</g>
</g>
<!-- src/index.js&#45;&gt;path -->
<g id="edge7" class="edge">
<title>src/index.js&#45;&gt;path</title>
<path fill="none" stroke="#000000" stroke-dasharray="5,2" stroke-opacity="0.200000" d="M47.45,-139.84C52.91,-125.9 64.33,-98.78 78,-78 83.94,-68.98 91.8,-59.82 98.47,-52.66"/>
<polygon fill="#000000" fill-opacity="0.200000" stroke="#000000" stroke-opacity="0.200000" points="100.24,-53.83 102.85,-48.04 97.2,-50.94 100.24,-53.83"/>
</g>
<!-- src/index.js&#45;&gt;src/constants/index.js -->
<g id="edge3" class="edge">
<title>src/index.js&#45;&gt;src/constants/index.js</title>
<path fill="none" stroke="#000000" stroke-width="2" stroke-opacity="0.200000" d="M70.13,-151.42C106.24,-153.85 172.92,-155 226,-137 235.71,-133.71 245.32,-127.58 252.89,-121.89"/>
<polygon fill="#000000" fill-opacity="0.200000" stroke="#000000" stroke-width="2" stroke-opacity="0.200000" points="254.35,-123.41 257.78,-118.06 251.76,-120.1 254.35,-123.41"/>
</g>
<!-- src/index.js&#45;&gt;src/utils/index.js -->
<g id="edge6" class="edge">
<title>src/index.js&#45;&gt;src/utils/index.js</title>
<path fill="none" stroke="#000000" stroke-width="2" stroke-opacity="0.200000" d="M50.88,-158.03C66.77,-178.03 108.29,-225.63 156,-243 219.69,-266.18 251.85,-280.21 308.5,-243 336.42,-224.66 345.87,-183.36 349,-161.02"/>
<polygon fill="#000000" fill-opacity="0.200000" stroke="#000000" stroke-width="2" stroke-opacity="0.200000" points="351.09,-161.22 349.75,-155 346.92,-160.69 351.09,-161.22"/>
</g>
<!-- src/routes/index.js -->
<g id="node7" class="node">
<title>src/routes/index.js</title>
<g id="a_node7"><a xlink:href="src/routes/index.js" xlink:title="index.js">
<path fill="#ffffcc" stroke="black" d="M134,-107C134,-107 92,-107 92,-107 89,-107 86,-104 86,-101 86,-101 86,-95 86,-95 86,-92 89,-89 92,-89 92,-89 134,-89 134,-89 137,-89 140,-92 140,-95 140,-95 140,-101 140,-101 140,-104 137,-107 134,-107"/>
<text text-anchor="middle" x="113" y="-95.8" font-family="Helvetica,sans-Serif" font-size="9.00">index.js</text>
</a>
</g>
</g>
<!-- src/index.js&#45;&gt;src/routes/index.js -->
<g id="edge4" class="edge">
<title>src/index.js&#45;&gt;src/routes/index.js</title>
<path fill="none" stroke="#000000" stroke-width="2" stroke-opacity="0.200000" d="M50.3,-139.72C56.49,-131.23 66.63,-118.83 78,-111 78.75,-110.48 79.52,-109.99 80.31,-109.5"/>
<polygon fill="#000000" fill-opacity="0.200000" stroke="#000000" stroke-width="2" stroke-opacity="0.200000" points="81.46,-111.27 85.73,-106.56 79.46,-107.58 81.46,-111.27"/>
</g>
<!-- src/store/index.js -->
<g id="node8" class="node">
<title>src/store/index.js</title>
<g id="a_node8"><a xlink:href="src/store/index.js" xlink:title="index.js">
<path fill="#ffffcc" stroke="black" d="M212,-184C212,-184 170,-184 170,-184 167,-184 164,-181 164,-178 164,-178 164,-172 164,-172 164,-169 167,-166 170,-166 170,-166 212,-166 212,-166 215,-166 218,-169 218,-172 218,-172 218,-178 218,-178 218,-181 215,-184 212,-184"/>
<text text-anchor="middle" x="191" y="-172.8" font-family="Helvetica,sans-Serif" font-size="9.00">index.js</text>
</a>
</g>
</g>
<!-- src/index.js&#45;&gt;src/store/index.js -->
<g id="edge5" class="edge">
<title>src/index.js&#45;&gt;src/store/index.js</title>
<path fill="none" stroke="#000000" stroke-width="2" stroke-opacity="0.200000" d="M70.1,-153.65C94.55,-158 131.18,-164.52 157.51,-169.21"/>
<polygon fill="#000000" fill-opacity="0.200000" stroke="#000000" stroke-width="2" stroke-opacity="0.200000" points="157.36,-171.32 163.63,-170.3 158.09,-167.18 157.36,-171.32"/>
</g>
<!-- src/routes/index.js&#45;&gt;fs -->
<g id="edge12" class="edge">
<title>src/routes/index.js&#45;&gt;fs</title>
<path fill="none" stroke="#000000" stroke-dasharray="5,2" stroke-opacity="0.200000" d="M119.28,-88.98C126.24,-77.96 139.54,-59.58 156,-50 199.92,-24.43 217.18,-27 268,-27 268,-27 268,-27 352.5,-27 405.9,-27 467.61,-19.4 504.27,-14.07"/>
<polygon fill="#000000" fill-opacity="0.200000" stroke="#000000" stroke-opacity="0.200000" points="504.74,-16.13 510.37,-13.17 504.13,-11.97 504.74,-16.13"/>
</g>
<!-- src/routes/index.js&#45;&gt;src/api/index.js -->
<g id="edge8" class="edge">
<title>src/routes/index.js&#45;&gt;src/api/index.js</title>
<path fill="none" stroke="#000000" stroke-width="2" stroke-opacity="0.200000" d="M140.15,-95.59C145.77,-95.07 151.76,-94.52 157.58,-93.99"/>
<polygon fill="#000000" fill-opacity="0.200000" stroke="#000000" stroke-width="2" stroke-opacity="0.200000" points="158.01,-96.05 163.8,-93.41 157.63,-91.87 158.01,-96.05"/>
</g>
<!-- src/routes/index.js&#45;&gt;src/constants/index.js -->
<g id="edge9" class="edge">
<title>src/routes/index.js&#45;&gt;src/constants/index.js</title>
<path fill="none" stroke="#000000" stroke-width="2" stroke-opacity="0.200000" d="M140.16,-105.48C143.01,-107 145.71,-108.83 148,-111 154.35,-117.02 148.66,-124.23 156,-129 183.75,-147.04 223.16,-132.89 247.07,-120.97"/>
<polygon fill="#000000" fill-opacity="0.200000" stroke="#000000" stroke-width="2" stroke-opacity="0.200000" points="248.14,-122.78 252.51,-118.16 246.22,-119.05 248.14,-122.78"/>
</g>
<!-- src/routes/index.js&#45;&gt;src/utils/index.js -->
<g id="edge11" class="edge">
<title>src/routes/index.js&#45;&gt;src/utils/index.js</title>
<path fill="none" stroke="#000000" stroke-width="2" stroke-opacity="0.200000" d="M124.54,-88.77C132.56,-82.4 144.19,-74.47 156,-71 221.07,-51.89 250.53,-40.82 308.5,-76 328.61,-88.2 340.3,-114.01 346.03,-130.64"/>
<polygon fill="#000000" fill-opacity="0.200000" stroke="#000000" stroke-width="2" stroke-opacity="0.200000" points="344.16,-131.67 348.01,-136.73 348.15,-130.38 344.16,-131.67"/>
</g>
<!-- src/routes/index.js&#45;&gt;src/store/index.js -->
<g id="edge10" class="edge">
<title>src/routes/index.js&#45;&gt;src/store/index.js</title>
<path fill="none" stroke="#000000" stroke-width="2" stroke-opacity="0.200000" d="M140.13,-104.99C143.06,-106.6 145.78,-108.58 148,-111 156.75,-120.54 149.6,-127.75 156,-139 160.84,-147.5 168.09,-155.55 174.65,-161.88"/>
<polygon fill="#000000" fill-opacity="0.200000" stroke="#000000" stroke-width="2" stroke-opacity="0.200000" points="173.23,-163.42 179.05,-165.97 176.09,-160.34 173.23,-163.42"/>
</g>
<!-- src/store/index.js&#45;&gt;src/constants/index.js -->
<g id="edge14" class="edge">
<title>src/store/index.js&#45;&gt;src/constants/index.js</title>
<path fill="none" stroke="#000000" stroke-width="2" stroke-opacity="0.200000" d="M218.24,-167.03C221.01,-165.6 223.66,-163.94 226,-162 231.22,-157.67 230.01,-154.49 234,-149 240.53,-140.01 248.55,-130.52 255.16,-123.03"/>
<polygon fill="#000000" fill-opacity="0.200000" stroke="#000000" stroke-width="2" stroke-opacity="0.200000" points="257.04,-124.08 259.47,-118.2 253.91,-121.28 257.04,-124.08"/>
</g>
<!-- src/store/index.js&#45;&gt;src/utils/index.js -->
<g id="edge15" class="edge">
<title>src/store/index.js&#45;&gt;src/utils/index.js</title>
<path fill="none" stroke="#000000" stroke-width="2" stroke-opacity="0.200000" d="M214.39,-165.96C220.65,-163.72 227.52,-161.53 234,-160 262.03,-153.4 294.63,-149.82 318.2,-147.94"/>
<polygon fill="#000000" fill-opacity="0.200000" stroke="#000000" stroke-width="2" stroke-opacity="0.200000" points="318.47,-150.02 324.3,-147.47 318.15,-145.83 318.47,-150.02"/>
</g>
<!-- src/store/audit.js -->
<g id="node9" class="node">
<title>src/store/audit.js</title>
<g id="a_node9"><a xlink:href="src/store/audit.js" xlink:title="audit.js">
<path fill="#ffffcc" stroke="black" d="M290,-184C290,-184 248,-184 248,-184 245,-184 242,-181 242,-178 242,-178 242,-172 242,-172 242,-169 245,-166 248,-166 248,-166 290,-166 290,-166 293,-166 296,-169 296,-172 296,-172 296,-178 296,-178 296,-181 293,-184 290,-184"/>
<text text-anchor="middle" x="269" y="-172.8" font-family="Helvetica,sans-Serif" font-size="9.00">audit.js</text>
</a>
</g>
</g>
<!-- src/store/index.js&#45;&gt;src/store/audit.js -->
<g id="edge16" class="edge">
<title>src/store/index.js&#45;&gt;src/store/audit.js</title>
<path fill="none" stroke="#000000" stroke-width="2" stroke-opacity="0.200000" d="M218.15,-175C223.77,-175 229.76,-175 235.58,-175"/>
<polygon fill="#000000" fill-opacity="0.200000" stroke="#000000" stroke-width="2" stroke-opacity="0.200000" points="235.8,-177.1 241.8,-175 235.8,-172.9 235.8,-177.1"/>
</g>
<!-- src/store/schedule.js -->
<g id="node10" class="node">
<title>src/store/schedule.js</title>
<g id="a_node10"><a xlink:href="src/store/schedule.js" xlink:title="schedule.js">
<path fill="#ffffcc" stroke="black" d="M294.5,-214C294.5,-214 243.5,-214 243.5,-214 240.5,-214 237.5,-211 237.5,-208 237.5,-208 237.5,-202 237.5,-202 237.5,-199 240.5,-196 243.5,-196 243.5,-196 294.5,-196 294.5,-196 297.5,-196 300.5,-199 300.5,-202 300.5,-202 300.5,-208 300.5,-208 300.5,-211 297.5,-214 294.5,-214"/>
<text text-anchor="middle" x="269" y="-202.8" font-family="Helvetica,sans-Serif" font-size="9.00">schedule.js</text>
</a>
</g>
</g>
<!-- src/store/index.js&#45;&gt;src/store/schedule.js -->
<g id="edge17" class="edge">
<title>src/store/index.js&#45;&gt;src/store/schedule.js</title>
<path fill="none" stroke="#000000" stroke-width="2" stroke-opacity="0.200000" d="M215.8,-184.03C219.23,-185.35 222.71,-186.7 226,-188 230.53,-189.78 235.32,-191.7 239.99,-193.57"/>
<polygon fill="#000000" fill-opacity="0.200000" stroke="#000000" stroke-width="2" stroke-opacity="0.200000" points="239.45,-195.62 245.8,-195.92 241.02,-191.73 239.45,-195.62"/>
</g>
<!-- src/store/audit.js&#45;&gt;src/utils/index.js -->
<g id="edge13" class="edge">
<title>src/store/audit.js&#45;&gt;src/utils/index.js</title>
<path fill="none" stroke="#000000" stroke-width="2" stroke-opacity="0.200000" d="M295.03,-165.98C302.75,-163.2 311.35,-160.1 319.43,-157.19"/>
<polygon fill="#000000" fill-opacity="0.200000" stroke="#000000" stroke-width="2" stroke-opacity="0.200000" points="320.55,-159.02 325.49,-155.01 319.13,-155.07 320.55,-159.02"/>
</g>
<!-- src/store/schedule.js&#45;&gt;src/utils/index.js -->
<g id="edge18" class="edge">
<title>src/store/schedule.js&#45;&gt;src/utils/index.js</title>
<path fill="none" stroke="#000000" stroke-width="2" stroke-opacity="0.200000" d="M297.67,-195.93C301.44,-194.21 305.16,-192.24 308.5,-190 320.75,-181.79 332.14,-169.45 339.95,-159.92"/>
<polygon fill="#000000" fill-opacity="0.200000" stroke="#000000" stroke-width="2" stroke-opacity="0.200000" points="341.6,-161.23 343.7,-155.23 338.31,-158.61 341.6,-161.23"/>
</g>
<!-- src/utils/lighthouse.js&#45;&gt;fs -->
<g id="edge24" class="edge">
<title>src/utils/lighthouse.js&#45;&gt;fs</title>
<path fill="none" stroke="#000000" stroke-dasharray="5,2" stroke-opacity="0.200000" d="M446.09,-85.88C460.23,-67.76 491.15,-28.58 497.5,-24 499.81,-22.34 502.32,-20.83 504.92,-19.48"/>
<polygon fill="#000000" fill-opacity="0.200000" stroke="#000000" stroke-opacity="0.200000" points="505.84,-21.37 510.36,-16.9 504.04,-17.57 505.84,-21.37"/>
</g>
<!-- src/utils/lighthouse.js&#45;&gt;src/utils/common.js -->
<g id="edge23" class="edge">
<title>src/utils/lighthouse.js&#45;&gt;src/utils/common.js</title>
<path fill="none" stroke="#000000" stroke-width="2" stroke-opacity="0.200000" d="M472.01,-102.45C481.25,-104.53 491.34,-106.81 500.74,-108.93"/>
<polygon fill="#000000" fill-opacity="0.200000" stroke="#000000" stroke-width="2" stroke-opacity="0.200000" points="500.48,-111.03 506.8,-110.3 501.41,-106.93 500.48,-111.03"/>
</g>
<!-- worker_threads -->
<g id="node15" class="node">
<title>worker_threads</title>
<path fill="#ffffcc" stroke="red" d="M571.5,-48C571.5,-48 503.5,-48 503.5,-48 500.5,-48 497.5,-45 497.5,-42 497.5,-42 497.5,-36 497.5,-36 497.5,-33 500.5,-30 503.5,-30 503.5,-30 571.5,-30 571.5,-30 574.5,-30 577.5,-33 577.5,-36 577.5,-36 577.5,-42 577.5,-42 577.5,-45 574.5,-48 571.5,-48"/>
<text text-anchor="middle" x="537.5" y="-36.8" font-family="Helvetica,sans-Serif" font-size="9.00" fill="red">worker_threads</text>
</g>
<!-- src/utils/lighthouse.js&#45;&gt;worker_threads -->
<g id="edge25" class="edge">
<title>src/utils/lighthouse.js&#45;&gt;worker_threads</title>
<path fill="none" stroke="#000000" stroke-width="2" stroke-opacity="0.200000" d="M455.1,-85.75C471.57,-76.29 497.24,-61.55 515.34,-51.15"/>
<polygon fill="#000000" fill-opacity="0.200000" stroke="#000000" stroke-width="2" stroke-opacity="0.200000" points="516.54,-52.88 520.7,-48.08 514.45,-49.24 516.54,-52.88"/>
</g>
<!-- src/utils/responseBuilder.js&#45;&gt;src/utils/common.js -->
<g id="edge26" class="edge">
<title>src/utils/responseBuilder.js&#45;&gt;src/utils/common.js</title>
<path fill="none" stroke="#000000" stroke-width="2" stroke-opacity="0.200000" d="M478.94,-129.99C486.25,-128.34 493.84,-126.63 501.01,-125.01"/>
<polygon fill="#000000" fill-opacity="0.200000" stroke="#000000" stroke-width="2" stroke-opacity="0.200000" points="501.53,-127.04 506.92,-123.67 500.61,-122.95 501.53,-127.04"/>
</g>
</g>
</svg>
